<?xml version="1.0" encoding="UTF-8" standalone="no"?>
<!-- Created with Inkscape (http://www.inkscape.org/) -->

<svg
   xmlns:dc="http://purl.org/dc/elements/1.1/"
   xmlns:cc="http://creativecommons.org/ns#"
   xmlns:rdf="http://www.w3.org/1999/02/22-rdf-syntax-ns#"
   xmlns:svg="http://www.w3.org/2000/svg"
   xmlns="http://www.w3.org/2000/svg"
   xmlns:sodipodi="http://sodipodi.sourceforge.net/DTD/sodipodi-0.dtd"
   xmlns:inkscape="http://www.inkscape.org/namespaces/inkscape"
   width="288.07138mm"
   height="86.234741mm"
   viewBox="0 0 288.07138 86.23474"
   version="1.1"
   id="svg8"
   inkscape:export-filename="/Users/matas/bitmap.png"
   inkscape:export-xdpi="96"
   inkscape:export-ydpi="96"
   inkscape:version="0.92.2 5c3e80d, 2017-08-06"
   sodipodi:docname="retrologowhite.svg">
  <defs
     id="defs2" />
  <sodipodi:namedview
     id="base"
     pagecolor="#ffffff"
     bordercolor="#666666"
     borderopacity="1.0"
     inkscape:pageopacity="0.0"
     inkscape:pageshadow="2"
     inkscape:zoom="1.0333894"
     inkscape:cx="554.86721"
     inkscape:cy="84.387696"
     inkscape:document-units="mm"
     inkscape:current-layer="layer1"
     showgrid="false"
     inkscape:snap-page="true"
     showguides="true"
     inkscape:guide-bbox="true"
     fit-margin-top="0"
     fit-margin-left="0"
     fit-margin-right="0"
     fit-margin-bottom="0"
     inkscape:window-width="1440"
     inkscape:window-height="793"
     inkscape:window-x="0"
     inkscape:window-y="1"
     inkscape:window-maximized="1" />
  <metadata
     id="metadata5">
    <rdf:RDF>
      <cc:Work
         rdf:about="">
        <dc:format>image/svg+xml</dc:format>
        <dc:type
           rdf:resource="http://purl.org/dc/dcmitype/StillImage" />
        <dc:title></dc:title>
      </cc:Work>
    </rdf:RDF>
  </metadata>
  <g
     inkscape:label="Layer 1"
     inkscape:groupmode="layer"
     id="layer1"
     transform="translate(94.220019,-15.195619)">
    <text
       xml:space="preserve"
       style="font-style:normal;font-variant:normal;font-weight:normal;font-stretch:normal;font-size:25.39999962px;line-height:1.25;font-family:Helvetica;-inkscape-font-specification:Helvetica;letter-spacing:0px;word-spacing:0px;fill:#000000;fill-opacity:1;stroke:none;stroke-width:0.26458332"
       x="-152.34363"
       y="7.2798319"
       id="text72"><tspan
         sodipodi:role="line"
         id="tspan70"
         x="-152.34363"
         y="31.163113"
         style="stroke-width:0.26458332" /></text>
    <g
       id="g591"
       transform="matrix(1.7776076,0,0,1.7776076,-72.913279,-60.515019)"
       inkscape:export-xdpi="96"
       inkscape:export-ydpi="96"
       style="fill:#ffffff">
      <g
         aria-label="R"
         transform="matrix(0.75233057,0,0,0.75233057,526.58358,42.285674)"
         style="font-style:normal;font-variant:normal;font-weight:normal;font-stretch:normal;font-size:96px;line-height:1.25;font-family:Futura;-inkscape-font-specification:Futura;letter-spacing:0px;word-spacing:0px;fill:#ffffff;fill-opacity:1;stroke:none"
         id="flowRoot62">
        <path
           d="m -695.90052,42.166254 q 3.744,0 7.296,-0.768 l 9.12,15.36 h 2.976 l -9.6,-16.128 q 5.184,-1.824 8.256,-5.568 3.072,-3.84 3.072,-9.888 0,-4.224 -1.632,-7.392 -1.632,-3.168 -4.512,-5.28 -2.784,-2.208 -6.624,-3.2640002 -3.84,-1.152 -8.352,-1.152 h -10.368 V 56.758254 h 2.496 v -14.592 z m -7.872,-2.304 v -29.472 h 7.872 q 8.736,0 13.632,3.84 4.992,3.84 4.992,10.944 0,7.104 -4.992,10.944 -4.896,3.744 -13.632,3.744 z m -12.096,-39.45600016 h 22.08 q 6.144,0 11.328,1.63199996 5.28,1.632 9.12,4.8 3.84,3.1680002 5.952,7.8720002 2.208,4.608 2.208,10.656 0,4.8 -1.344,8.16 -1.344,3.36 -2.976,5.568 -1.92,2.496 -4.32,4.224 l 12,21.12 h -24 l -9.6,-16.224 v 16.224 h -20.448 z m 20.448,31.48800016 h 1.056 q 3.648,0 6.144,-1.632 2.592,-1.632 2.592,-5.472 0,-3.84 -2.592,-5.472 -2.496,-1.632 -6.144,-1.632 h -1.056 z"
           style="font-style:normal;font-variant:normal;font-weight:normal;font-stretch:normal;font-family:Phosphate;-inkscape-font-specification:Phosphate;fill:#ffffff"
           id="path631" />
      </g>
      <path
         style="font-style:normal;font-variant:normal;font-weight:normal;font-stretch:normal;font-size:medium;line-height:1.25;font-family:Futura;-inkscape-font-specification:Futura;letter-spacing:0px;word-spacing:0px;fill:#ffffff;fill-opacity:1;stroke:none;stroke-width:0.24702078"
         d="M 25.405334,61.99852 H 44.22707 v 4.073509 H 25.405334 Z"
         id="rect355" />
      <g
         id="flowRoot62-99"
         style="font-style:normal;font-variant:normal;font-weight:normal;font-stretch:normal;font-size:96px;line-height:1.25;font-family:Futura;-inkscape-font-specification:Futura;letter-spacing:0px;word-spacing:0px;fill:#ffffff;fill-opacity:1;stroke:none"
         transform="matrix(0.38721879,0,0,0.39718583,343.11883,85.515328)"
         aria-label="R">
        <path
           inkscape:connector-curvature="0"
           id="path487"
           d="m -733.98914,-59.239263 v 10.264904 h 3.88955 c 10.06249,0 15.09461,3.703757 15.09461,11.110005 0,7.906249 -5.17276,11.858748 -15.51651,11.858748 h -3.46765 v 9.516167 h 1.96756 l 20.67305,29.624078 h 13.35884 l -22.40623,-30.8429 c 4.8125,-1.031246 8.68687,-3.391026 11.62437,-7.078523 2.9375,-3.687503 4.40649,-8.0932 4.40649,-13.218198 0,-6.562507 -2.34284,-11.844654 -7.03034,-15.844655 -4.25001,-3.593751 -11.15743,-5.389626 -20.71993,-5.389626 z"
           style="stroke-width:0.99999994;fill:#ffffff" />
      </g>
      <g
         aria-label="D"
         transform="matrix(0.39547488,0,0,0.39547488,382.91148,65.266918)"
         style="font-style:normal;font-variant:normal;font-weight:normal;font-stretch:normal;font-size:96px;line-height:1.25;font-family:Futura;-inkscape-font-specification:Futura;letter-spacing:0px;word-spacing:0px;fill:#ffffff;fill-opacity:1;stroke:none"
         id="flowRoot62-0">
        <path
           d="M -715.86852,64.438254 V 0.40625384 h 17.76 q 9.024,0 16.032,2.01599996 7.104,2.016 11.904,6.048 4.896,4.0320002 7.392,10.0800002 2.592,5.952 2.592,13.824 0,7.872 -2.592,13.92 -2.496,5.952 -7.392,9.984 -4.8,4.032 -11.904,6.144 -7.008,2.016 -16.032,2.016 z m 12.096,-9.984 v -44.064 h 5.664 q 12.192,0 18.912,5.568 6.816,5.472 6.816,16.416 0,10.944 -6.816,16.512 -6.72,5.568 -18.912,5.568 z m -2.496,2.304 h 8.16 q 14.016,0 21.12,-6.336 7.2,-6.432 7.2,-18.048 0,-11.616 -7.2,-17.952 -7.104,-6.3360002 -21.12,-6.3360002 h -8.16 z m 10.848,-10.56 q 7.2,0 11.136,-3.36 3.936,-3.456 3.936,-10.464 0,-7.008 -3.936,-10.368 -3.936,-3.36 -11.136,-3.36 z"
           style="font-style:normal;font-variant:normal;font-weight:normal;font-stretch:normal;font-family:Phosphate;-inkscape-font-specification:Phosphate;fill:#ffffff"
           id="path635" />
      </g>
      <g
         aria-label="C"
         transform="matrix(0.28696362,0,0,0.28696362,338.62532,77.797747)"
         style="font-style:normal;font-variant:normal;font-weight:normal;font-stretch:normal;font-size:96px;line-height:1.25;font-family:Futura;-inkscape-font-specification:Futura;letter-spacing:0px;word-spacing:0px;fill:#ffffff;fill-opacity:1;stroke:none"
         id="flowRoot62-72">
        <path
           d="m -657.07227,-24.655204 v 12.9375 q -9.46875,-7.921875 -19.59375,-7.921875 -11.15625,0 -18.79687,8.015625 -7.6875,7.9687505 -7.6875,19.5000005 0,11.3906245 7.6875,19.2187495 7.6875,7.828125 18.84375,7.828125 5.76562,0 9.79687,-1.875 2.25,-0.9375 4.64063,-2.53125 2.4375,-1.59375 5.10937,-3.84375 v 13.171875 q -9.375,5.296875 -19.6875,5.296875 -15.51562,0 -26.48437,-10.828125 -10.92188,-10.921875 -10.92188,-26.3437495 0,-13.828125 9.14063,-24.6562505 11.25,-13.265625 29.10937,-13.265625 9.75,0 18.84375,5.296875 z"
           style=""
           id="path638" />
      </g>
      <g
         aria-label="T"
         transform="matrix(0.39685241,0,0,0.39685241,326.4837,73.332781)"
         style="font-style:normal;font-variant:normal;font-weight:normal;font-stretch:normal;font-size:96px;line-height:1.25;font-family:Futura;-inkscape-font-specification:Futura;letter-spacing:0px;word-spacing:0px;fill:#ffffff;fill-opacity:1;stroke:none"
         id="flowRoot62-99-9">
        <path
           d="m -690.58789,-18.280204 v 62.109375 h -10.92188 v -62.109375 h -16.64062 v -10.265625 h 44.15625 v 10.265625 z"
           style=""
           id="path641" />
      </g>
      <path
         style="font-style:normal;font-variant:normal;font-weight:normal;font-stretch:normal;font-size:medium;line-height:1.25;font-family:Futura;-inkscape-font-specification:Futura;letter-spacing:0px;word-spacing:0px;fill:#ffffff;fill-opacity:1;stroke:none;stroke-width:0.24702078"
         d="m 25.346676,74.122063 h 18.821735 v 4.073509 H 25.346676 Z"
         id="rect355-3" />
      <path
         style="font-style:normal;font-variant:normal;font-weight:normal;font-stretch:normal;font-size:medium;line-height:1.25;font-family:Futura;-inkscape-font-specification:Futura;letter-spacing:0px;word-spacing:0px;fill:#ffffff;fill-opacity:1;stroke:none;stroke-width:0.24702078"
         d="m 25.346676,86.658714 h 18.821735 v 4.07351 H 25.346676 Z"
         id="rect355-0" />
      <path
         sodipodi:nodetypes="sccscscsccscscs"
         inkscape:connector-curvature="0"
         id="flowRoot62-6-6"
         d="m 71.987536,61.761307 c -1.074478,0 -5.691652,0.03789 -6.428781,1.260236 l 3.328449,3.166522 c 0.954077,-0.274384 1.968779,-0.413124 3.045353,-0.413124 2.956776,0 5.437039,1.026318 7.440799,3.078954 2.015984,2.040417 3.023973,4.569557 3.023973,7.587419 0,2.981208 -1.020205,5.510348 -3.060623,7.58742 -2.040419,2.052635 -4.545124,3.078953 -7.514112,3.078953 -1.023858,0 -2.00216,-0.140912 -2.93539,-0.423051 v 4.138107 c 0.93314,0.18484 1.8928,0.280252 2.880407,0.280252 4.12971,0 7.65462,-1.423405 10.574738,-4.270214 2.907901,-2.834592 4.361855,-6.286196 4.361855,-10.354813 0,-4.044179 -1.44785,-7.508002 -4.343526,-10.391465 -2.883467,-2.883464 -6.341181,-4.325196 -10.373142,-4.325196 z"
         style="font-style:normal;font-variant:normal;font-weight:normal;font-stretch:normal;font-size:96px;line-height:1.25;font-family:Futura;-inkscape-font-specification:Futura;letter-spacing:0px;word-spacing:0px;fill:#ffffff;fill-opacity:1;stroke:none;stroke-width:0.39097816" />
      <path
         inkscape:connector-curvature="0"
         id="flowRoot62-6-6-1"
         d="m 123.31292,69.23838 c -0.79469,0 -1.55847,0.07536 -2.29301,0.221961 v 3.052071 c 0.70564,-0.202935 1.45612,-0.305548 2.25234,-0.305548 2.18685,0 4.02125,0.759067 5.50322,2.277196 1.49102,1.509091 2.23654,3.379644 2.23654,5.611655 0,2.2049 -0.75456,4.075453 -2.26364,5.611656 -1.50911,1.518129 -3.36158,2.277194 -5.55745,2.277194 -0.75724,0 -1.48079,-0.104214 -2.17101,-0.312889 v 3.060545 c 0.69014,0.136707 1.39991,0.207274 2.13035,0.207274 3.05433,0 5.66136,-1.052751 7.82109,-3.158251 2.15068,-2.096463 3.22601,-4.649271 3.22601,-7.65842 0,-2.991075 -1.07082,-5.552919 -3.21245,-7.685529 -2.13262,-2.132609 -4.68995,-3.198915 -7.67199,-3.198915 z"
         style="font-style:normal;font-variant:normal;font-weight:normal;font-stretch:normal;font-size:96px;line-height:1.25;font-family:Futura;-inkscape-font-specification:Futura;letter-spacing:0px;word-spacing:0px;fill:#ffffff;fill-opacity:1;stroke:none;stroke-width:0.28916749" />
    </g>
  </g>
</svg>
